<?xml version="1.0" encoding="UTF-8"?>
<!DOCTYPE svg PUBLIC "-//W3C//DTD SVG 1.1//EN" "http://www.w3.org/Graphics/SVG/1.1/DTD/svg11.dtd">
<!-- Creator: CorelDRAW 2017 -->
<svg xmlns="http://www.w3.org/2000/svg" xml:space="preserve" width="3.70333in" height="2.08333in" version="1.1" style="shape-rendering:geometricPrecision; text-rendering:geometricPrecision; image-rendering:optimizeQuality; fill-rule:evenodd; clip-rule:evenodd"
viewBox="0 0 3703 2083"
 xmlns:xlink="http://www.w3.org/1999/xlink"
 enable-background="new 0 0 64 64">
 <defs>
  <style type="text/css">
   <![CDATA[
    .fil2 {fill:#FEFEFE}
    .fil6 {fill:#31A9D4}
    .fil9 {fill:#33385C}
    .fil4 {fill:#454A6D}
    .fil5 {fill:#4AC3ED}
    .fil8 {fill:#76CC7A}
    .fil0 {fill:#E6E7E8}
    .fil7 {fill:#E89D43}
    .fil3 {fill:#EAE8E5}
    .fil10 {fill:#373435;fill-opacity:0.031373}
    .fil1 {fill:#2B2A29;fill-opacity:0.101961}
   ]]>
  </style>
 </defs>
 <g id="Layer_x0020_1">
  <metadata id="CorelCorpID_0Corel-Layer"/>
  <polygon class="fil0" points="0,0 3704,0 3704,2083 0,2083 "/>
  <polygon class="fil1" points="844,2083 844,2083 835,2083 814,2083 813,2083 740,2083 676,2083 643,2083 637,2083 625,2083 603,2083 602,2083 602,2083 590,2083 523,2083 505,2083 503,2083 494,2083 460,2083 438,2083 433,2083 430,2083 422,2083 418,2083 414,2083 391,2083 377,2083 335,2083 294,2083 264,2083 262,2083 253,2083 235,2083 223,2083 217,2083 213,2083 190,2083 165,2083 157,2083 149,2083 139,2083 120,2083 116,2083 91,2083 81,2083 72,2083 56,2083 38,2083 28,2083 24,2083 4,2083 1,2083 0,2083 0,2050 0,2038 0,2024 0,2024 0,1989 0,1988 0,1966 0,1935 0,1921 0,1905 0,1899 0,1884 0,1872 0,1840 0,1828 0,1826 0,1813 0,1764 0,1699 0,1692 0,1530 1408,447 1380,469 1353,492 1327,517 1302,543 1279,570 1257,598 1236,627 1217,657 1199,688 1183,720 1168,753 1155,786 1143,821 1139,836 1500,564 1505,561 1512,559 1518,559 1618,559 1625,559 1631,561 1637,564 1642,568 1646,573 1649,579 1651,585 1652,592 1652,609 1682,670 1835,559 2335,559 2335,1108 2168,1217 2170,1216 2176,1214 2182,1211 2188,1210 2195,1209 2202,1208 2208,1209 2215,1210 2221,1211 2227,1214 2233,1216 2239,1220 2244,1223 2249,1228 2253,1233 2257,1238 2260,1243 2263,1249 2265,1255 2267,1261 2268,1268 2268,1275 2268,1282 2267,1288 2265,1295 2263,1301 2260,1307 2257,1312 2253,1317 2249,1322 2244,1326 2239,1330 2218,1343 2226,1345 2234,1348 2241,1352 2248,1356 2255,1361 2260,1366 2266,1372 2271,1378 2275,1385 2278,1392 2281,1400 2283,1408 2284,1416 2285,1425 2285,1525 1869,1783 1890,1783 1928,1780 1965,1775 2001,1769 2037,1760 2072,1750 2107,1739 2141,1726 2173,1711 2205,1694 2237,1676 1571,2083 1386,2083 1240,2083 1171,2083 1063,2083 1045,2083 1027,2083 1023,2083 955,2083 853,2083 "/>
  <g id="_2458067059232">
   <g>
    <path class="fil0" d="M1183 1365l1151 -806 0 550 -868 568c-122,-74 -221,-182 -283,-311z"/>
    <path class="fil0" d="M1212 1419l856 -593 200 0 -997 679c-22,-27 -41,-56 -59,-86z"/>
    <path class="fil0" d="M1466 1676l698 -456 5 -3 6 -3 6 -2 6 -2 7 -1 7 0 7 0 7 1 6 2 6 2 6 3 5 3 5 4 5 4 4 5 4 5 3 5 3 6 2 6 2 6 1 7 0 7 0 7 -1 7 -2 6 -2 6 -3 6 -3 5 -4 5 -4 5 -5 4 -5 4 -640 410c-47,-17 -91,-38 -133,-64z"/>
    <path class="fil0" d="M1573 1730l582 -374 7 -4 7 -4 8 -3 8 -2 8 -1 9 0 -614 394c-5,-2 -10,-4 -14,-6z"/>
    <path class="fil0" d="M1731 1774l554 -349 0 100 -416 259c-6,0 -11,0 -17,0 -41,0 -82,-3 -121,-10z"/>
    <path class="fil0" d="M1588 1735l614 -394 9 0 8 1 8 2 8 3 7 4 7 4 6 5 6 5 5 6 5 6 4 7 4 7 3 8 2 8 1 8 0 9 -554 349c-50,-8 -97,-21 -143,-39z"/>
    <path class="fil0" d="M1240 1461l829 -570 200 0 -964 651c-23,-26 -45,-53 -65,-82z"/>
    <path class="fil0" d="M1270 1503l798 -544 200 0 -927 622c-25,-24 -49,-50 -71,-77z"/>
    <path class="fil0" d="M1576 1731l476 -306 0 100 -375 238c-35,-8 -68,-19 -101,-32z"/>
    <path class="fil0" d="M1304 1542l765 -517 200 0 -888 590c-27,-22 -53,-47 -77,-73z"/>
    <path class="fil0" d="M1286 1523l782 -531 0 33 -765 517c-6,-6 -12,-13 -17,-19z"/>
    <path class="fil0" d="M1254 1482l814 -557 0 33 -798 544c-5,-7 -11,-13 -16,-20z"/>
    <path class="fil0" d="M1362 1599l569 -380 5 -3 6 -3 6 -2 6 -2 7 -1 7 0 7 0 7 1 6 2 6 2 6 3 5 3 5 4 5 4 4 5 4 5 3 5 3 6 2 6 2 6 1 7 0 7 0 7 -1 7 -2 6 -2 6 -3 6 -3 5 -4 5 -4 5 -5 4 -5 4 -534 349c-39,-23 -76,-50 -109,-80z"/>
    <path class="fil0" d="M1277 1512l691 -470 0 67 -656 443c-12,-13 -24,-26 -35,-39z"/>
    <path class="fil0" d="M1226 1440l843 -582 0 33 -829 570c-5,-7 -10,-14 -14,-21z"/>
    <path class="fil0" d="M1200 1396l869 -605 0 33 -856 593c-4,-7 -9,-15 -13,-22z"/>
    <path class="fil0" d="M1111 1088l724 -529 500 0 -1151 806c-41,-85 -66,-178 -72,-277z"/>
    <path class="fil0" d="M1150 1284l902 -640 100 50 -966 676c-14,-28 -26,-56 -36,-86z"/>
    <path class="fil0" d="M1186 1369l966 -676 107 -54 -1066 744c-2,-5 -5,-10 -7,-14z"/>
    <path class="fil0" d="M1157 1304l882 -624 -100 100 -774 546c-3,-7 -6,-14 -8,-21z"/>
    <path class="fil0" d="M1201 1399l801 -557 -119 119 -667 462c-5,-8 -10,-16 -14,-24z"/>
    <path class="fil0" d="M1166 1326l774 -546 24 24 -785 551c-4,-9 -9,-19 -13,-29z"/>
    <path class="fil0" d="M1163 1320l772 -545 67 67 -801 557c-14,-26 -27,-52 -38,-79z"/>
    <path class="fil0" d="M1462 1673l507 -332 9 0 8 1 8 2 8 3 7 4 7 4 6 5 6 5 5 6 5 6 4 7 4 7 3 8 2 8 1 8 0 9 -476 306c-40,-16 -78,-35 -114,-58z"/>
    <path class="fil0" d="M1145 1269l814 -579 93 -46 -902 640c-2,-5 -3,-10 -5,-15z"/>
    <path class="fil0" d="M1450 1666l472 -310 7 -4 7 -4 8 -3 8 -2 8 -1 9 0 -507 332c-4,-3 -8,-5 -12,-8z"/>
    <polygon class="fil0" points="1215,1423 1882,961 1877,966 1872,970 1216,1424 "/>
    <path class="fil0" d="M1136 1238l808 -578 15 30 -814 579c-3,-10 -6,-21 -9,-31z"/>
    <path class="fil0" d="M1133 1227l622 -446 80 93 -663 466c-16,-36 -29,-74 -39,-114z"/>
    <path class="fil0" d="M1146 1271l439 -313 3 0 3 1 3 2 2 2 2 2 2 3 1 3 0 3 -449 318c-3,-7 -5,-15 -8,-22z"/>
    <path class="fil0" d="M1161 1314l574 -405 0 133 -529 367c-17,-30 -33,-62 -46,-95z"/>
    <path class="fil0" d="M1173 1343l429 -301 33 0 -454 318c-3,-6 -5,-11 -8,-17z"/>
    <path class="fil0" d="M1153 1293l449 -318 0 67 -429 301c-7,-16 -14,-33 -20,-50z"/>
    <path class="fil0" d="M1122 1179l582 -420 4 0 4 0 4 0 4 1 3 1 3 1 3 1 3 1 3 2 3 2 3 2 3 2 3 2 3 2 3 3 2 3 -622 446c-4,-16 -8,-32 -11,-49z"/>
    <path class="fil0" d="M1110 1008l541 -400 33 67 -574 419c-1,-17 -2,-35 -2,-52 0,-11 0,-22 1,-33z"/>
    <path class="fil0" d="M1110 1072l542 -397 0 9 -1 9 -2 8 -3 8 -4 8 -5 7 -5 7 -6 6 -7 5 -505 368c-1,-13 -2,-26 -3,-38z"/>
    <path class="fil0" d="M1138 836l362 -272 6 -3 6 -2 7 -1 -383 288c1,-3 2,-7 3,-10z"/>
    <path class="fil0" d="M1136 846l383 -288 100 0 -501 373c4,-29 10,-57 18,-85z"/>
    <path class="fil0" d="M1118 932l501 -373 7 1 6 2 6 3 5 4 4 5 3 6 2 6 1 7 -541 400c1,-20 3,-40 6,-60z"/>
    <path class="fil0" d="M1111 992l541 -400 0 17 -541 400c0,-6 1,-11 1,-17z"/>
    <path class="fil0" d="M1110 1058l409 -300 100 0 -504 367c-2,-22 -4,-44 -4,-67z"/>
    <path class="fil0" d="M1130 1214l356 -255 100 0 -439 313c-6,-19 -11,-38 -16,-57z"/>
    <path class="fil0" d="M1110 1023l359 -264 236 0 -582 420c-8,-44 -13,-90 -13,-137 0,-6 0,-13 0,-19z"/>
    <path class="fil0" d="M1300 1538l635 -430 0 83 -588 394c-16,-15 -32,-31 -47,-47z"/>
    <path class="fil0" d="M1114 1125l504 -367 -50 100 -446 322c-3,-18 -6,-36 -8,-55z"/>
    <path class="fil0" d="M1118 1157l367 -265 0 67 -356 255c-4,-19 -8,-37 -11,-56z"/>
    <path class="fil0" d="M1129 1213l239 -172 600 0 -691 470c-70,-86 -122,-187 -148,-299z"/>
    <path class="fil0" d="M1151 1286l251 -178 533 0 -635 430c-65,-72 -116,-158 -149,-252z"/>
    <path class="fil0" d="M1274 1508l423 -288 5 -3 6 -3 6 -2 6 -2 7 -1 7 0 7 0 7 1 6 2 6 2 6 3 5 3 5 4 5 4 4 5 4 5 3 5 3 6 2 6 2 6 1 7 0 7 0 7 -1 7 -2 6 -2 6 -3 6 -3 5 -4 5 -4 5 -5 4 -5 4 -407 272c-33,-29 -63,-60 -91,-94z"/>
    <line class="fil0" x1="1735" y1="1342" x2="1735" y2= "1342" />
    <path class="fil0" d="M1203 1402l262 -182 5 -3 6 -3 6 -2 6 -2 7 -1 7 0 7 0 7 1 6 2 6 2 6 3 5 3 5 4 5 4 4 5 4 5 3 5 3 6 2 6 2 6 1 7 0 7 0 7 -1 7 -2 6 -2 6 -3 6 -3 5 -4 5 -4 5 -5 4 -5 4 -263 179c-27,-34 -52,-70 -73,-108z"/>
    <path class="fil0" d="M1268 1501l233 -159 9 0 8 1 8 2 8 3 7 4 7 4 6 5 6 5 5 6 5 6 4 7 4 7 3 8 2 8 1 8 0 9 -239 160c-28,-26 -54,-54 -78,-84z"/>
    <path class="fil0" d="M1260 1489l195 -134 7 -4 7 -4 8 -3 8 -2 8 -1 9 0 -233 159c-3,-4 -6,-8 -9,-11z"/>
    <path class="fil0" d="M1110 1007l321 -237 5 -3 6 -3 6 -2 6 -2 7 -1 7 0 -359 264c0,-5 0,-11 1,-16z"/>
    <path class="fil0" d="M1346 1585l342 -229 7 -4 7 -4 8 -3 8 -2 8 -1 9 0 -379 253c-3,-3 -7,-6 -10,-9z"/>
    <path class="fil0" d="M1356 1594l379 -253 9 0 8 1 8 2 8 3 7 4 7 4 6 5 6 5 5 6 5 6 4 7 4 7 3 8 2 8 1 8 0 9 -368 241c-33,-21 -65,-45 -94,-72z"/>
    <path class="fil0" d="M1346 1585l239 -160 0 100 -173 115c-23,-17 -45,-35 -66,-54z"/>
    <path class="fil0" d="M1450 1666l368 -241 0 100 -288 186c-28,-13 -54,-28 -80,-45z"/>
    <g>
     <path class="fil0" d="M1392 459l15 -12 -28 22c-9,8 -18,15 -27,23l-26 25c8,-8 17,-17 26,-25l27 -23 13 -10zm-66 58l-25 26c8,-9 16,-17 25,-26zm-25 26l-23 27c8,-9 15,-18 23,-27zm-23 27l-22 28c7,-10 14,-19 22,-28zm-22 28l-21 29c7,-10 14,-20 21,-29zm-21 29l-19 30c6,-10 13,-20 19,-30zm-19 30l-18 31c6,-11 12,-21 18,-31zm-18 31l-16 32c5,-11 11,-21 16,-32zm-16 32l-15 33c5,-11 10,-22 15,-33zm-15 33l-13 34c4,-11 9,-23 13,-34zm-13 34l-12 34c4,-12 8,-23 12,-34zm-12 34l-10 35c3,-12 6,-24 10,-35zm-10 35l-8 36c2,-12 5,-24 8,-36zm-8 36l-7 37c2,-12 4,-24 7,-37zm-7 37l-5 37c1,-12 3,-25 5,-37zm-5 37l-3 38c1,-13 2,-25 3,-38zm-3 38l-1 38c0,-13 0,-26 1,-38zm-1 38l1 38c-1,-13 -1,-25 -1,-38zm1 38l3 38c-1,-12 -2,-25 -3,-38zm3 38l5 37c-2,-12 -3,-25 -5,-37zm5 37l7 37c-2,-12 -5,-24 -7,-37zm7 37l8 36c-3,-12 -6,-24 -8,-36zm8 36l10 35c-4,-12 -7,-23 -10,-35zm10 35l12 34c-4,-11 -8,-23 -12,-34zm12 34l13 34c-5,-11 -9,-22 -13,-34zm13 34l15 33c-5,-11 -10,-22 -15,-33zm15 33l16 32c-6,-11 -11,-21 -16,-32zm16 32l18 31c-6,-10 -12,-21 -18,-31zm18 31l19 30c-7,-10 -13,-20 -19,-30zm19 30l21 29c-7,-10 -14,-19 -21,-29zm21 29l22 28c-8,-9 -15,-19 -22,-28zm22 28l23 27c-8,-9 -16,-18 -23,-27zm23 27l25 26c-8,-8 -17,-17 -25,-26zm25 26l26 25c-9,-8 -17,-16 -26,-25zm26 25l27 23c-9,-8 -18,-15 -27,-23zm27 23l28 22c-10,-7 -19,-14 -28,-22zm28 22l29 21c-10,-7 -20,-14 -29,-21zm29 21l30 19c-10,-6 -20,-13 -30,-19zm30 19l31 18c-11,-6 -21,-12 -31,-18zm31 18l32 16c-11,-5 -21,-11 -32,-16zm32 16l33 15c-11,-5 -22,-10 -33,-15zm33 15l34 13c-11,-4 -23,-9 -34,-13zm34 13l34 12c-12,-4 -23,-8 -34,-12zm34 12l35 10c-12,-3 -24,-6 -35,-10zm35 10l36 8c-12,-2 -24,-5 -36,-8zm36 8l37 7c-12,-2 -24,-4 -37,-7zm37 7l37 5c-12,-1 -25,-3 -37,-5zm37 5l38 3c-13,-1 -25,-2 -38,-3zm38 3l38 1c-13,0 -26,0 -38,-1zm38 1l38 -1c-13,1 -25,1 -38,1zm38 -1l38 -3c-12,1 -25,2 -38,3zm38 -3l37 -5c-12,2 -25,3 -37,5zm37 -5l37 -7c-12,2 -24,5 -37,7zm37 -7l36 -8c-12,3 -24,6 -36,8zm36 -8l35 -10c-12,4 -23,7 -35,10zm35 -10l34 -12c-11,4 -23,8 -34,12zm34 -12l34 -13c-11,5 -22,9 -34,13zm34 -13l33 -15c-11,5 -22,10 -33,15zm33 -15l32 -16c-11,6 -21,11 -32,16zm32 -16l31 -18c-10,6 -21,12 -31,18z"/>
    </g>
   </g>
   <g id="_2458062155280">
    <polygon class="fil0" points="1835,908 2335,559 2335,1108 1835,1108 "/>
    <polygon class="fil0" points="1835,987 2068,825 2268,825 1853,1108 1835,1108 "/>
    <polygon class="fil0" points="1835,1052 2068,892 2268,892 1948,1108 1835,1108 "/>
    <polygon class="fil0" points="1848,1108 2068,958 2268,958 2044,1108 "/>
    <polygon class="fil0" points="1945,1108 2068,1025 2268,1025 2143,1108 "/>
    <polygon class="fil0" points="1896,1108 2068,992 2068,1025 1945,1108 "/>
    <polygon class="fil0" points="1835,1085 2068,925 2068,958 1848,1108 1835,1108 "/>
    <polygon class="fil0" points="1870,1108 1968,1042 1968,1108 "/>
    <polygon class="fil0" points="1835,1019 2068,858 2068,892 1835,1052 "/>
    <polygon class="fil0" points="1835,954 2068,792 2068,825 1835,987 "/>
    <polygon class="fil0" points="1835,559 2335,559 1835,908 "/>
    <polygon class="fil0" points="1835,798 2052,644 2152,694 1835,915 "/>
    <polygon class="fil0" points="1835,915 2152,694 2259,640 1835,936 "/>
    <polygon class="fil0" points="1835,825 2040,680 1940,780 1835,854 "/>
    <polygon class="fil0" points="1835,958 2002,842 1882,961 1835,994 "/>
    <polygon class="fil0" points="1835,854 1940,780 1963,804 1835,894 "/>
    <polygon class="fil0" points="1835,846 1935,775 2002,842 1835,958 "/>
    <polygon class="fil0" points="1835,778 1959,690 2052,644 1835,798 "/>
    <polygon class="fil0" points="1835,994 1882,961 1877,966 1872,970 1835,995 "/>
    <polygon class="fil0" points="1835,738 1944,660 1959,690 1835,778 "/>
    <polygon class="fil0" points="1835,1042 1968,1042 1870,1108 1835,1108 "/>
   </g>
   <g id="_2458062144336">
    <polygon class="fil0" points="1550,1108 1645,1042 1968,1042 1968,1108 "/>
    <polygon class="fil0" points="1660,1108 1756,1042 1950,1042 1853,1108 "/>
    <polygon class="fil0" points="1753,1108 1850,1042 1968,1042 1968,1094 1948,1108 "/>
    <polygon class="fil0" points="1848,1108 1946,1042 1968,1042 1968,1108 "/>
    <polygon class="fil0" points="1945,1108 1968,1093 1968,1108 "/>
    <polygon class="fil0" points="1896,1108 1968,1060 1968,1093 1945,1108 "/>
    <polygon class="fil0" points="1801,1108 1898,1042 1946,1042 1848,1108 "/>
    <polygon class="fil0" points="1870,1108 1968,1042 1968,1108 "/>
    <polygon class="fil0" points="1706,1108 1803,1042 1850,1042 1753,1108 "/>
    <polygon class="fil0" points="1614,1108 1709,1042 1756,1042 1660,1108 "/>
    <polygon class="fil0" points="1645,1042 1550,1108 1369,1108 1369,1042 "/>
    <polygon class="fil0" points="1397,1108 1491,1042 1654,1042 1559,1108 "/>
    <polygon class="fil0" points="1559,1108 1654,1042 1683,1042 1588,1108 "/>
    <polygon class="fil0" points="1434,1108 1529,1042 1569,1042 1474,1108 "/>
    <polygon class="fil0" points="1619,1108 1714,1042 1766,1042 1670,1108 "/>
    <polygon class="fil0" points="1474,1108 1569,1042 1624,1042 1529,1108 "/>
    <polygon class="fil0" points="1463,1108 1557,1042 1714,1042 1619,1108 "/>
    <polygon class="fil0" points="1371,1108 1465,1042 1491,1042 1397,1108 "/>
    <polygon class="fil0" points="1670,1108 1766,1042 1768,1042 1672,1108 "/>
    <polygon class="fil0" points="1369,1072 1411,1042 1465,1042 1371,1108 1369,1108 "/>
    <polygon class="fil0" points="1369,1059 1392,1042 1598,1042 1503,1108 1369,1108 "/>
    <polygon class="fil0" points="1374,1108 1468,1042 1508,1042 1414,1108 "/>
    <polygon class="fil0" points="1452,1108 1546,1042 1735,1042 1639,1108 "/>
    <polygon class="fil0" points="1507,1108 1602,1042 1635,1042 1540,1108 "/>
    <polygon class="fil0" points="1414,1108 1508,1042 1602,1042 1507,1108 "/>
    <polygon class="fil0" points="1392,1042 1369,1059 1369,1042 "/>
    <polygon class="fil0" points="1369,1042 1369,1042 1468,1042 1374,1108 1369,1108 "/>
    <polygon class="fil0" points="1369,1042 1369,1042 1369,1042 "/>
    <polygon class="fil0" points="1369,1042 1968,1042 1870,1108 1369,1108 "/>
   </g>
   <g id="_2458062134800">
    <path class="fil0" d="M1645 1042l90 -63 0 63 -90 0zm132 -92l196 -137 29 29 -119 119c-26,26 -68,26 -94,0l-12 -12z"/>
    <path class="fil0" d="M1845 980l61 -42 -23 23c-11,11 -24,17 -37,19z"/>
    <path class="fil0" d="M1709 1042l26 -18 0 18 -26 0zm97 -67l193 -135 2 2 -96 96 -61 42c-13,2 -26,0 -39,-6z"/>
    <path class="fil0" d="M1402 875l160 -117 143 0c19,0 38,8 51,23l80 93 100 -100 37 37 -196 137 -41 -41 0 70 -90 63 -176 0c-37,0 -67,-30 -67,-67l0 -100z"/>
    <polygon class="fil0" points="1491,1042 1794,827 1835,875 1935,775 1976,816 1780,954 1735,908 1735,985 1654,1042 "/>
    <path class="fil0" d="M1654 1042l81 -57 0 20 -52 36 -29 0zm126 -88l196 -137 12 12 -196 137c-2,-1 -3,-3 -5,-4l-8 -8z"/>
    <path class="fil0" d="M1529 1042l280 -198 15 18 -79 56 -9 -9 0 16 -166 117 -40 0zm411 -262l0 0 -33 23 28 -28 5 5z"/>
    <path class="fil0" d="M1714 1042l21 -14 0 14 -21 0zm95 -66l192 -134 -119 119 -20 14c-17,8 -36,8 -53,1z"/>
    <path class="fil0" d="M1569 1042l166 -117 0 39 -111 78 -55 0zm176 -124l79 -56 11 13 72 -72 33 -23 24 24 -196 137 -23 -23z"/>
    <path class="fil0" d="M1557 1042l178 -125 0 111 -21 14 -157 0zm182 -129l80 -56 16 18 100 -100 67 67 -192 134c-8,-3 -15,-8 -21,-14l-48 -48z"/>
    <path class="fil0" d="M1465 1042l318 -227 10 12 -303 215 -23 0c-1,0 -2,0 -3,0z"/>
    <path class="fil0" d="M1863 975l20 -14 -5 5 -5 4c-3,2 -6,4 -9,5z"/>
    <path class="fil0" d="M1429 1029l333 -238 21 25 -318 227c-13,-1 -26,-5 -36,-13z"/>
    <path class="fil0" d="M1421 1021l334 -240 80 93 -78 55 -22 -22 0 37 -137 96 -130 0c-19,0 -36,-8 -48,-20z"/>
    <polygon class="fil0" points="1468,1042 1585,958 1588,959 1592,960 1594,961 1597,963 1599,966 1600,969 1601,972 1602,975 1508,1042 1468,1042 "/>
    <polygon class="fil0" points="1546,1042 1735,908 1735,1042 "/>
    <polygon class="fil0" points="1508,1042 1602,975 1602,1042 "/>
    <path class="fil0" d="M1402 977l303 -218 4 0 4 0 4 0 4 1 3 1 3 1 3 1 3 1 3 2 3 2 3 2 3 2 3 2 3 2 3 3 2 3 -334 240c-11,-12 -18,-27 -19,-45z"/>
    <path class="fil0" d="M1419 780l21 -15c9,-4 18,-6 28,-6l103 0 -169 124 0 -57c0,-17 7,-33 17,-45z"/>
    <polygon class="fil0" points="1402,858 1538,758 1596,758 1402,900 "/>
    <path class="fil0" d="M1440 765l-21 15c6,-6 13,-12 21,-15z"/>
    <polygon class="fil0" points="1402,844 1518,758 1618,758 1402,916 "/>
    <path class="fil0" d="M1412 1011l73 -52 100 0 -117 83c-23,0 -44,-12 -56,-31z"/>
    <path class="fil0" d="M1405 805l64 -47 236 0 -303 218 0 -2 0 -150c0,-7 1,-13 3,-20z"/>
    <path class="fil0" d="M1402 916l217 -157 -50 100 -167 120c0,-1 0,-2 0,-3l0 -59z"/>
    <path class="fil0" d="M1402 952l83 -60 0 67 -73 52c-7,-10 -10,-23 -10,-36l0 -23z"/>
    <path class="fil0" d="M1427 773l4 -3 5 -3 6 -3 6 -2 6 -2 7 -1 7 0 -64 47c4,-13 12,-24 22,-32z"/>
   </g>
   <g id="_2458062130736">
    <path class="fil0" d="M1635 1042l-33 0 0 -67c0,-9 -7,-17 -17,-17l-100 0 0 -67 33 0 0 33 67 0c28,0 50,22 50,50l0 67z"/>
    <path class="fil0" d="M1599 965l27 -19c6,8 9,18 9,29l0 67 -33 0 0 -67c0,-4 -1,-7 -3,-10z"/>
    <path class="fil0" d="M1602 990l33 -23c0,3 1,5 1,8l0 20 -33 23 0 -28z"/>
    <polygon class="fil0" points="1602,1018 1635,995 1635,1034 1624,1042 1602,1042 "/>
    <polygon class="fil0" points="1602,1010 1635,987 1635,1042 1602,1042 "/>
    <path class="fil0" d="M1582 958l33 -23c4,3 8,7 11,11l-27 19c-3,-4 -8,-7 -14,-7l-3 0z"/>
    <path class="fil0" d="M1527 958l47 -33 11 0c11,0 21,4 30,10l-33 23 -55 0z"/>
    <path class="fil0" d="M1508 958l47 -33 30 0c28,0 50,22 50,50l0 41 -33 23 0 -64c0,-9 -7,-17 -17,-17l-77 0z"/>
    <polygon class="fil0" points="1602,1003 1635,979 1635,1042 1602,1042 "/>
    <polygon class="fil0" points="1485,917 1518,893 1518,925 1555,925 1508,958 1485,958 "/>
    <polygon class="fil0" points="1518,893 1485,917 1485,892 1518,892 "/>
    <polygon class="fil0" points="1518,894 1485,918 1485,892 1518,892 "/>
   </g>
   <g id="_2458062126864">
    <path class="fil0" d="M1562 758l88 -64c-9,39 -45,67 -88,64zm114 -83l7 -5 3 5 -10 0z"/>
    <path class="fil0" d="M1500 721l152 -112 33 67 -33 0c0,10 -2,19 -5,28l-76 55c-4,0 -7,0 -11,0 -26,-2 -47,-17 -60,-37z"/>
    <path class="fil0" d="M1543 755l108 -79 0 9 -1 9 -2 8 -3 8 -4 8 -5 7 -5 7 -6 6 -7 5c-16,12 -36,18 -58,16 -6,-1 -12,-2 -17,-4z"/>
    <path class="fil0" d="M1497 566l3 -2 6 -3 6 -2 7 -1 -32 24c2,-6 6,-12 11,-16z"/>
    <path class="fil0" d="M1486 583l32 -24 100 0 -133 99 0 -66c0,-3 0,-6 1,-9z"/>
    <path class="fil0" d="M1485 658l133 -99 7 1 6 2 6 3 5 4 4 5 3 6 2 6 1 7 -158 117c-5,-12 -8,-24 -8,-37l0 -14z"/>
    <path class="fil0" d="M1493 709l158 -117 0 17 -152 112c-2,-4 -5,-8 -6,-12z"/>
   </g>
   <g id="_2458062125200">
    <polygon class="fil0" points="1530,781 1561,758 1618,758 1568,858 "/>
    <polygon class="fil0" points="1568,857 1570,855 1568,858 "/>
    <polygon class="fil0" points="1571,758 1533,787 1518,758 "/>
    <polygon class="fil0" points="1524,769 1538,758 1596,758 1539,800 "/>
    <polygon class="fil0" points="1518,758 1618,758 1545,812 "/>
    <polygon class="fil0" points="1518,758 1618,758 1570,855 1568,857 "/>
    <polygon class="fil0" points="1545,812 1618,758 1568,858 "/>
   </g>
   <g id="_2458055761008">
    <polygon class="fil0" points="2146,691 2248,619 2259,640 2152,694 "/>
    <polygon class="fil0" points="2248,619 2146,691 2052,644 1959,690 1944,660 2052,607 2152,657 2244,610 "/>
   </g>
   <g id="_2458067035872">
    <polygon class="fil0" points="1940,780 2040,680 2063,704 1963,804 "/>
    <polygon class="fil0" points="1940,780 2040,680 2063,704 1963,804 "/>
    <polygon class="fil0" points="1940,780 1963,804 1963,804 1940,780 "/>
   </g>
   <polygon class="fil0" points="2068,792 2268,792 2268,825 2068,825 "/>
   <g id="_2458067034496">
    <polygon class="fil0" points="2068,858 2268,858 2268,892 2068,892 "/>
    <polygon class="fil0" points="2219,858 2170,892 2068,892 2068,858 "/>
   </g>
   <g id="_2458067033216">
    <polygon class="fil0" points="2068,925 2268,925 2268,958 2068,958 "/>
    <polygon class="fil0" points="2122,925 2073,958 2068,958 2068,925 "/>
    <polygon class="fil0" points="2219,925 2170,958 2068,958 2068,925 "/>
   </g>
   <g id="_2458067033440">
    <polygon class="fil0" points="2068,992 2268,992 2268,1025 2068,1025 "/>
    <polygon class="fil0" points="2120,992 2071,1025 2068,1025 2068,992 "/>
    <polygon class="fil0" points="2218,992 2169,1025 2068,1025 2068,992 "/>
   </g>
   <g id="_2458067090336">
    <path class="fil0" d="M1502 1342c-46,0 -83,37 -83,83l0 100 167 0 0 -100c0,-46 -37,-83 -83,-83z"/>
    <path class="fil0" d="M1510 1342l-88 60c10,-35 42,-60 80,-60 3,0 5,0 8,0z"/>
    <path class="fil0" d="M1563 1368l-145 98 0 -41c0,-46 37,-83 83,-83 24,0 46,10 61,27z"/>
    <path class="fil0" d="M1423 1398l83 -57c41,2 75,34 79,75l-162 108 -5 0 0 -100c0,-9 2,-18 4,-26z"/>
    <path class="fil0" d="M1419 1464l144 -97c14,15 23,35 23,58l0 54 -69 46 -98 0 0 -61z"/>
    <path class="fil0" d="M1419 1433l121 -82c8,4 16,10 22,17l-144 97 0 -31z"/>
    <path class="fil0" d="M1506 1342l-83 57c11,-33 42,-57 79,-57 1,0 3,0 4,0z"/>
    <polygon class="fil0" points="1474,1525 1585,1450 1585,1525 "/>
    <path class="fil0" d="M1419 1415l104 -71c19,5 36,17 47,33l-152 102 0 -54c0,-3 0,-6 1,-9z"/>
    <path class="fil0" d="M1419 1458l140 -94c17,15 27,37 27,61l0 1 -148 99 -19 0 0 -67z"/>
    <path class="fil0" d="M1523 1344l-104 71c5,-42 40,-74 83,-74 7,0 15,1 22,3z"/>
    <path class="fil0" d="M1558 1363l-140 94 0 -33c0,-46 37,-83 83,-83 22,0 41,8 56,22z"/>
    <path class="fil0" d="M1420 1409l97 -66c39,7 68,41 68,82l0 30 -105 70 -62 0 0 -100c0,-5 1,-11 2,-16z"/>
    <path class="fil0" d="M1520 1343l-100 68c6,-40 41,-70 82,-70 6,0 12,1 18,2z"/>
    <path class="fil0" d="M1424 1394l78 -53 9 0 8 1 8 2 8 3 7 4 7 4 6 5 6 5 5 6 5 6 4 7 4 7 3 8 2 8 1 8 0 9 -149 100 -17 0 0 -100c0,-11 2,-21 6,-30z"/>
    <path class="fil0" d="M1455 1356l7 -4 7 -4 8 -3 8 -2 8 -1 9 0 -78 53c6,-16 17,-29 31,-39z"/>
    <polygon class="fil0" points="1436,1525 1585,1425 1585,1442 1461,1525 "/>
    <polygon class="fil0" points="1461,1525 1585,1442 1585,1525 "/>
    <polygon class="fil0" points="1436,1525 1585,1425 1585,1525 "/>
   </g>
   <g id="_2458067087520">
    <path class="fil0" d="M1568 1275c0,-37 -30,-67 -67,-67 -37,0 -67,30 -67,67 0,37 30,67 67,67 37,0 67,-30 67,-67z"/>
    <path class="fil0" d="M1436 1263l78 -54c31,6 55,33 55,66 0,12 -3,23 -9,33l-48 33c-3,0 -6,1 -10,1 -37,0 -67,-30 -67,-67 0,-4 0,-8 1,-12z"/>
    <path class="fil0" d="M1450 1317l110 -75c6,10 9,21 9,33 0,37 -30,67 -67,67 -21,0 -40,-10 -52,-25z"/>
    <path class="fil0" d="M1507 1341l55 -38c-10,21 -31,36 -55,38z"/>
    <path class="fil0" d="M1471 1334l97 -66c0,2 0,5 0,7 0,10 -2,20 -6,29l-55 38c-2,0 -3,0 -5,0 -11,0 -22,-3 -31,-8z"/>
    <path class="fil0" d="M1438 1294l104 -72c7,5 13,12 18,20l-110 75c-5,-7 -10,-15 -12,-23z"/>
    <path class="fil0" d="M1514 1209l-78 54c6,-31 33,-55 66,-55 4,0 8,0 12,1z"/>
    <path class="fil0" d="M1521 1211l-86 60c2,-35 31,-62 67,-62 7,0 13,1 20,3z"/>
    <polygon class="fil0" points="1435,1271 1521,1211 1523,1212 1435,1272 "/>
    <path class="fil0" d="M1495 1209l-52 36c10,-20 29,-34 52,-36z"/>
    <path class="fil0" d="M1568 1275c0,-37 -30,-67 -67,-67 -37,0 -67,30 -67,67 0,37 30,67 67,67 37,0 67,-30 67,-67z"/>
    <path class="fil0" d="M1568 1275c0,-37 -30,-67 -67,-67 -37,0 -67,30 -67,67 0,37 30,67 67,67 37,0 67,-30 67,-67z"/>
    <path class="fil0" d="M1525 1337l27 -18c-7,8 -16,14 -27,18z"/>
    <path class="fil0" d="M1463 1221l0 0 1 -1 0 0 0 0 5 -3 6 -3 6 -2 6 -2 7 -1 7 0 7 0 7 1 6 2 6 2 6 3 5 3 5 4 5 4 4 5 4 5 3 5 3 6 2 6 2 6 1 7 0 7 0 7 -1 7 -2 6 -2 6 -3 6 -3 5 0 0 0 0 0 0 -4 5 -4 5 0 0 0 0 0 0 -5 4 -5 4c-11,7 -23,11 -37,11 -37,0 -67,-30 -67,-67 0,-22 11,-42 28,-54z"/>
   </g>
   <g id="_2458067081888">
    <path class="fil0" d="M1818 1446l-120 79 -46 0 0 -100c0,-46 37,-83 83,-83l0 0c46,0 83,37 83,83l0 21z"/>
    <polygon class="fil0" points="1698,1525 1818,1446 1818,1525 "/>
    <path class="fil0" d="M1776 1352l-124 83 0 -10c0,-46 37,-83 83,-83l0 0c15,0 29,4 41,11z"/>
    <path class="fil0" d="M1654 1404l93 -62c40,6 71,41 71,82l0 28 -111 72 -56 0 0 -100c0,-7 1,-14 3,-21z"/>
    <polygon class="fil0" points="1688,1525 1818,1440 1818,1525 "/>
    <polygon class="fil0" points="1664,1525 1818,1424 1818,1425 1818,1440 1688,1525 "/>
    <path class="fil0" d="M1698 1350l-18 12c5,-5 11,-9 18,-12z"/>
    <path class="fil0" d="M1752 1343l-99 66c7,-39 41,-68 82,-68l0 0c6,0 12,1 17,2z"/>
    <line class="fil0" x1="1735" y1="1342" x2="1735" y2= "1342" />
    <path class="fil0" d="M1688 1356l7 -4 7 -4 8 -3 8 -2 8 -1 9 0 -77 51c6,-15 17,-28 30,-37z"/>
    <path class="fil0" d="M1658 1393l77 -51 9 0 8 1 8 2 8 3 7 4 7 4 6 5 6 5 5 6 5 6 4 7 4 7 3 8 2 8 1 8 0 9 -152 100 -14 0 0 -100c0,-11 2,-22 6,-32z"/>
    <polygon class="fil0" points="1666,1525 1818,1425 1818,1525 "/>
   </g>
   <g id="_2458067075680">
    <path class="fil0" d="M1802 1275c0,-37 -30,-67 -67,-67 -37,0 -67,30 -67,67 0,37 30,67 67,67 37,0 67,-30 67,-67z"/>
    <path class="fil0" d="M1777 1223l-106 72c-2,-6 -3,-13 -3,-20 0,-37 30,-67 67,-67 16,0 31,6 42,15z"/>
    <path class="fil0" d="M1802 1271l-95 64c-22,-11 -38,-34 -38,-60 0,-37 30,-67 67,-67 36,0 65,28 67,63z"/>
    <path class="fil0" d="M1671 1294l105 -71c16,12 26,31 26,52 0,37 -30,67 -67,67 -30,0 -56,-20 -64,-48z"/>
    <path class="fil0" d="M1670 1262l78 -53c11,2 20,7 29,13l-105 71c-2,-6 -3,-12 -3,-19 0,-4 0,-8 1,-13z"/>
    <path class="fil0" d="M1751 1340l37 -25c-9,12 -22,21 -37,25z"/>
    <path class="fil0" d="M1679 1238l42 -29c4,-1 9,-1 14,-1 20,0 38,9 51,23l-110 74c-5,-9 -7,-20 -7,-31 0,-14 4,-26 11,-37z"/>
    <path class="fil0" d="M1670 1288l102 -69c18,12 30,32 30,56 0,2 0,4 0,6l-86 58c-23,-7 -41,-27 -46,-51z"/>
    <path class="fil0" d="M1721 1210l-42 29c10,-14 25,-25 42,-29z"/>
    <path class="fil0" d="M1771 1219l-102 69c-1,-4 -1,-9 -1,-13 0,-37 30,-67 67,-67 13,0 26,4 36,11z"/>
    <path class="fil0" d="M1698 1220l5 -3 6 -3 6 -2 6 -2 7 -1 7 0 7 0 7 1 6 2 6 2 6 3 5 3 5 4 5 4 4 5 4 5 3 5 3 6 2 6 2 6 1 7 0 7 0 7 -1 7 -2 6 -2 6 -3 6 -3 5 0 0 0 0 0 0 -4 5 -4 5 0 0 0 0 0 0 -5 4 -5 4c-11,7 -23,11 -37,11 -37,0 -67,-30 -67,-67 0,-23 12,-43 29,-55z"/>
    <line class="fil0" x1="1735" y1="1342" x2="1735" y2= "1342" />
   </g>
   <g id="_2458067074816">
    <path class="fil0" d="M1977 1342l-89 58c11,-34 42,-58 80,-58 3,0 6,0 9,1z"/>
    <path class="fil0" d="M1889 1400l88 -58c42,4 74,40 74,83l0 25 -117 75 -50 0 0 -100c0,-9 1,-17 4,-25z"/>
    <path class="fil0" d="M1892 1525l159 -103c0,1 0,2 0,3l0 13 -136 87 -24 0z"/>
    <polygon class="fil0" points="1916,1525 2052,1438 2052,1525 "/>
    <polygon class="fil0" points="1896,1525 2052,1425 2052,1525 "/>
    <path class="fil0" d="M1985 1343l-99 64c8,-38 41,-66 82,-66 6,0 12,1 17,2z"/>
    <path class="fil0" d="M1892 1392l76 -50 9 0 8 1 8 2 8 3 7 4 7 4 6 5 6 5 5 6 5 6 4 7 4 7 3 8 2 8 1 8 0 9 -156 100 -11 0 0 -100c0,-12 2,-23 7,-33z"/>
    <path class="fil0" d="M1922 1356l7 -4 7 -4 8 -3 8 -2 8 -1 9 0 -76 50c6,-15 17,-27 30,-36z"/>
   </g>
   <g id="_2458067072608">
    <path class="fil0" d="M2024 1312l-44 29c-4,1 -7,1 -11,1 -37,0 -67,-30 -67,-67 0,-37 30,-67 67,-67 37,0 67,30 67,67 0,14 -4,26 -11,37z"/>
    <path class="fil0" d="M1979 1341l45 -29c-10,15 -26,26 -45,29z"/>
    <path class="fil0" d="M1988 1211l-86 57c3,-34 32,-60 66,-60 7,0 13,1 20,3z"/>
    <path class="fil0" d="M1931 1220l5 -3 6 -3 6 -2 6 -2 7 -1 7 0 7 0 7 1 6 2 6 2 6 3 5 3 5 4 5 4 4 5 4 5 3 5 3 6 2 6 2 6 1 7 0 7 0 7 -1 7 -2 6 -2 6 -3 6 -3 5 0 0 0 0 0 0 -4 5 -4 5 0 0 0 0 0 0 -5 4 -5 4 -2 1c-10,7 -23,10 -36,10 -37,0 -67,-30 -67,-67 0,-23 12,-43 29,-55z"/>
   </g>
   <g id="_2458067069472">
    <path class="fil0" d="M2218 1343l-98 63c9,-37 42,-64 81,-64 6,0 11,1 17,2z"/>
    <path class="fil0" d="M2155 1356l7 -4 7 -4 8 -3 8 -2 8 -1 9 0 -76 49c6,-14 17,-26 29,-34z"/>
    <polygon class="fil0" points="2126,1525 2285,1425 2285,1525 "/>
    <path class="fil0" d="M2126 1390l76 -49 9 0 8 1 8 2 8 3 7 4 7 4 6 5 6 5 5 6 5 6 4 7 4 7 3 8 2 8 1 8 0 9 -159 100 -8 0 0 -100c0,-12 3,-24 8,-35z"/>
   </g>
   <g id="_2458067069504">
    <path class="fil0" d="M2169 1217l-8 5c2,-2 5,-4 8,-5z"/>
    <path class="fil0" d="M2164 1220l5 -3 6 -3 6 -2 6 -2 7 -1 7 0 7 0 7 1 6 2 6 2 6 3 5 3 5 4 5 4 4 5 4 5 3 5 3 6 2 6 2 6 1 7 0 7 0 7 -1 7 -2 6 -2 6 -3 6 -3 5 0 0 0 0 0 0 -4 5 -4 5 0 0 0 0 0 0 -5 4 -5 4 -3 2c-10,6 -22,10 -34,10 -37,0 -67,-30 -67,-67 0,-23 12,-43 29,-55z"/>
   </g>
   <g id="_2458067059392">
    <polygon class="fil0" points="1431,1192 1550,1108 1935,1108 1935,1192 "/>
    <polygon class="fil0" points="1540,1192 1660,1108 1853,1108 1730,1192 "/>
    <polygon class="fil0" points="1632,1192 1753,1108 1935,1108 1935,1117 1825,1192 "/>
    <polygon class="fil0" points="1726,1192 1848,1108 1935,1108 1935,1182 1920,1192 "/>
    <polygon class="fil0" points="1822,1192 1935,1115 1935,1192 "/>
    <polygon class="fil0" points="1774,1192 1896,1108 1935,1108 1935,1115 1822,1192 "/>
    <polygon class="fil0" points="1679,1192 1801,1108 1848,1108 1726,1192 "/>
    <polygon class="fil0" points="1748,1192 1870,1108 1935,1108 1935,1131 1845,1192 "/>
    <polygon class="fil0" points="1586,1192 1706,1108 1753,1108 1632,1192 "/>
    <polygon class="fil0" points="1494,1192 1614,1108 1660,1108 1540,1192 "/>
    <polygon class="fil0" points="1550,1108 1431,1192 1402,1192 1402,1108 "/>
    <polygon class="fil0" points="1559,1108 1440,1192 1402,1192 1402,1108 "/>
    <polygon class="fil0" points="1440,1192 1559,1108 1588,1108 1468,1192 "/>
    <polygon class="fil0" points="1402,1131 1434,1108 1474,1108 1402,1159 "/>
    <polygon class="fil0" points="1499,1192 1619,1108 1670,1108 1550,1192 "/>
    <polygon class="fil0" points="1402,1159 1474,1108 1529,1108 1410,1192 1402,1192 "/>
    <polygon class="fil0" points="1402,1151 1463,1108 1619,1108 1499,1192 1402,1192 "/>
    <polygon class="fil0" points="1550,1192 1670,1108 1672,1108 1551,1192 "/>
    <polygon class="fil0" points="1503,1108 1402,1180 1402,1108 "/>
    <polygon class="fil0" points="1414,1108 1402,1117 1402,1108 "/>
    <polygon class="fil0" points="1402,1144 1452,1108 1639,1108 1519,1192 1402,1192 "/>
    <polygon class="fil0" points="1402,1182 1507,1108 1540,1108 1421,1192 1402,1192 "/>
    <polygon class="fil0" points="1402,1117 1414,1108 1507,1108 1402,1182 "/>
    <polygon class="fil0" points="1812,1192 1935,1108 1935,1192 "/>
    <polygon class="fil0" points="1870,1108 1748,1192 1402,1192 1402,1108 "/>
    <polygon class="fil0" points="1402,1108 1935,1108 1812,1192 1402,1192 "/>
   </g>
  </g>
  <g>
   <circle class="fil2" cx="1852" cy="1042" r="742"/>
   <polygon class="fil3" points="1835,559 2335,559 2335,1108 1835,1108 "/>
   <polygon class="fil4" points="1369,1042 1968,1042 1968,1108 1369,1108 "/>
   <path class="fil5" d="M1735 1042l0 -133 53 53c26,26 68,26 94,0l119 -119 -67 -67 -100 100 -80 -93c-13,-15 -31,-23 -51,-23l-236 0c-37,0 -67,30 -67,67l0 150c0,37 30,67 67,67l267 0z"/>
   <path class="fil6" d="M1635 1042l-33 0 0 -67c0,-9 -7,-17 -17,-17l-100 0 0 -67 33 0 0 33 67 0c28,0 50,22 50,50l0 67z"/>
   <path class="fil7" d="M1652 675c0,49 -42,88 -91,83 -43,-4 -75,-43 -75,-87l0 -80c0,-18 15,-33 33,-33l100 0c18,0 33,15 33,33l0 17 33 67 -33 0z"/>
   <polygon class="fil3" points="1518,758 1568,858 1618,758 "/>
   <polygon class="fil4" points="2152,694 2052,644 1959,690 1944,660 2052,607 2152,657 2244,610 2259,640 "/>
   <polygon class="fil4" points="1940,780 2040,680 2063,704 1963,804 "/>
   <polygon class="fil4" points="2068,792 2268,792 2268,825 2068,825 "/>
   <polygon class="fil4" points="2068,858 2268,858 2268,892 2068,892 "/>
   <polygon class="fil4" points="2068,925 2268,925 2268,958 2068,958 "/>
   <polygon class="fil4" points="2068,992 2268,992 2268,1025 2068,1025 "/>
   <g id="_2458067052960">
    <path class="fil8" d="M1502 1342c-46,0 -83,37 -83,83l0 100 167 0 0 -100c0,-46 -37,-83 -83,-83z"/>
    <circle class="fil8" cx="1502" cy="1275" r="67"/>
    <path class="fil8" d="M1735 1342c-46,0 -83,37 -83,83l0 100 167 0 0 -100c0,-46 -37,-83 -83,-83l0 0z"/>
    <circle class="fil8" cx="1735" cy="1275" r="67"/>
    <path class="fil8" d="M1968 1342c-46,0 -83,37 -83,83l0 100 167 0 0 -100c0,-46 -37,-83 -83,-83z"/>
    <circle class="fil8" cx="1968" cy="1275" r="67"/>
    <path class="fil8" d="M2202 1342c-46,0 -83,37 -83,83l0 100 167 0 0 -100c0,-46 -37,-83 -83,-83z"/>
    <circle class="fil8" cx="2202" cy="1275" r="67"/>
   </g>
   <polygon class="fil9" points="1402,1108 1935,1108 1935,1192 1402,1192 "/>
  </g>
 </g>
 <g id="Layer_x0020_1_0">
  <metadata id="CorelCorpID_1Corel-Layer"/>
  <path class="fil10" d="M216 1826c7,11 12,21 16,32 3,7 5,19 21,19 5,0 11,-1 17,-5 7,-3 12,-9 14,-17l6 -21 15 -7 1 1c-2,8 -3,16 -3,21 0,18 15,24 27,24 7,0 13,-4 13,-10 0,-8 -4,-23 -8,-35 7,-7 14,-14 22,-20l1 1c4,15 6,30 6,40 0,10 -4,20 -8,27 -7,14 -20,25 -36,25 -12,0 -25,-6 -34,-17l-1 0c-9,11 -22,20 -43,20l-7 0c-1,14 -4,24 -9,33 -13,25 -50,42 -85,42 -49,0 -73,-28 -73,-66 0,-23 8,-45 19,-60l10 4c-7,14 -12,27 -12,40 0,35 29,52 62,52 31,0 68,-19 75,-42 -3,-25 -12,-36 -26,-59 4,-7 10,-15 17,-23l1 0 0 0 2 1 0 0zm564 -133c10,6 20,14 30,23 -6,8 -12,15 -21,21 -10,-8 -20,-15 -30,-22 7,-8 14,-15 20,-22l0 0 1 0 0 0zm5 96c-17,0 -30,11 -30,19 0,17 33,23 73,23 -5,-20 -22,-42 -43,-42zm-37 93c22,0 41,-1 55,-4 16,-4 30,-12 30,-18 0,-2 0,-3 -1,-5 -9,1 -19,1 -29,1 -29,0 -52,-7 -61,-23 -2,-5 -4,-10 -4,-16 0,-16 7,-32 19,-42 10,-9 21,-14 33,-14 20,0 37,16 48,42 6,14 11,30 11,51 0,14 -4,25 -12,34 -16,15 -45,21 -90,21l-20 0 0 0 -5 0c-11,0 -19,-2 -25,-7l-1 0c0,3 1,5 1,7 0,10 -3,23 -10,33 -20,30 -42,43 -60,43 -19,0 -42,-7 -63,-17l4 -7c7,3 16,5 29,5 34,0 78,-33 84,-64 -1,-3 -4,-6 -7,-10 -10,-12 -16,-22 -22,-32 5,-10 10,-18 14,-25l2 0c14,29 28,46 57,46l5 0 0 0 21 0 0 0 -3 1 0 0zm-146 31c2,-14 3,-29 3,-43l0 -21c0,-39 -5,-96 -9,-133 7,-8 17,-17 25,-23l2 1c5,47 7,101 7,151 0,13 -1,26 -2,35 -1,12 -8,21 -22,35l-3 -1 0 0 -1 -1 0 0zm-151 -62c1,18 10,33 41,33 20,0 36,-5 55,-14 3,-1 5,-3 5,-5 0,-12 -9,-27 -24,-41 -14,-13 -34,-25 -52,-32 -6,-3 -8,-5 -8,-8 0,-5 7,-16 13,-24l2 0c20,11 43,27 60,44 15,16 25,33 25,51 0,13 -4,26 -11,38 -22,11 -46,20 -70,20 -29,0 -48,-14 -48,-45 0,-3 0,-9 1,-16l10 0 0 0 1 -1 0 0zm-52 -52l18 29c7,11 13,22 13,41l0 24c0,19 -12,39 -32,60 -15,14 -29,20 -42,20 -19,0 -40,-6 -65,-17l3 -7c8,2 17,4 28,4 36,0 72,-26 89,-58 2,-4 3,-7 3,-9 0,-4 -2,-8 -4,-11 -9,-17 -19,-33 -30,-47 6,-9 12,-18 18,-27l1 0 0 -2 0 0z"/>
 </g>
</svg>
